<svg width="331" height="430" viewBox="0 0 331 430" fill="none" xmlns="http://www.w3.org/2000/svg">
<g filter="url(#filter0_f)">
<ellipse cx="165.234" cy="418.5" rx="160.234" ry="6.5" fill="#D6DBE2"/>
</g>
<path fill-rule="evenodd" clip-rule="evenodd" d="M123.904 237.388C124.195 237.155 124.547 237.001 124.923 236.943C125.298 236.884 125.683 236.922 126.038 237.054C125.772 237.096 125.511 237.158 125.255 237.239C125.099 237.307 124.98 237.455 124.824 237.528C124.673 237.594 124.505 237.616 124.341 237.591C124.178 237.566 124.025 237.495 123.904 237.388Z" fill="#DBCFC4"/>
<path fill-rule="evenodd" clip-rule="evenodd" d="M154.734 384.543C157.02 382.942 159.363 382.627 161.758 383.573C163.702 384.791 164.75 385.377 164.655 387.632C171.1 391.802 175.535 392.591 180.049 389.435C180.253 393.944 180.998 399.292 182.942 403.178C184.156 408.661 178.807 409.834 168.34 410.325C155.944 410.726 136.358 422.86 122.738 412.967C119.831 410.862 126.124 405.492 133.588 402.75C143.547 399.098 149.238 393.281 154.734 384.538V384.543Z" fill="#231F20" stroke="#231F20" stroke-width="0.5" stroke-miterlimit="2.61"/>
<path fill-rule="evenodd" clip-rule="evenodd" d="M240.738 195.207C218.033 199.924 194.582 200.417 171.679 196.658L155.2 282.329L150.135 388.222C156.997 392.848 174.288 392.731 181.15 390.183L187.315 288.371L204.772 240.445L205.72 237.424L212.426 296.392L214.84 385.25C221.697 387.78 237.556 389.926 244.418 385.3L248.212 292.79L240.738 195.207Z" fill="#4D4E50"/>
<path fill-rule="evenodd" clip-rule="evenodd" d="M216.926 385.589C219.297 388.267 221.284 388.245 222.844 385.454C227.397 376.544 237.304 380.138 241.762 386.044C241.681 394.278 243.469 403.269 247.618 409.942C251.265 421.476 215.845 421.859 217.41 411.867C219.283 402.574 218.809 394.891 216.935 385.598L216.926 385.589Z" fill="#231F20" stroke="#231F20" stroke-width="0.5" stroke-miterlimit="2.61"/>
<path fill-rule="evenodd" clip-rule="evenodd" d="M222.859 88.2761C222.764 92.3838 221.436 91.6308 219.667 94.2324C214.697 101.447 204.017 100.27 202.225 84.5833L202.599 78.5412L222.294 77.9551L222.859 88.2761Z" fill="#965224"/>
<path fill-rule="evenodd" clip-rule="evenodd" d="M222.551 81.8066L222.835 87.8802C222.82 89.0013 222.693 90.1186 222.456 91.2169C221.891 92.4974 220.948 92.6687 219.724 94.549C219.027 95.528 218.203 96.4202 217.272 97.2048L202.201 84.8863V84.7149L202.386 81.8066C205.412 82.8155 208.603 83.307 211.809 83.2585C215.447 83.3036 219.07 82.8139 222.551 81.8066Z" fill="#844820"/>
<path fill-rule="evenodd" clip-rule="evenodd" d="M251.024 97.3938C248.098 96.7085 229.868 90.6304 222.783 85.0122C223.731 94.233 219.292 97.2225 213.625 98.0882C212.112 129.94 208.409 168.153 206.825 200.086C216.646 200.004 230.437 198.976 240.728 195.306C240.728 180.278 245.47 153.08 245.47 147.962C245.47 142.844 247.078 141.473 247.842 133.191C248.942 122.581 252.261 107.129 251.024 97.3938Z" fill="#00A2AB"/>
<path fill-rule="evenodd" clip-rule="evenodd" d="M213.227 97.7681C202.865 96.8347 201.642 90.8829 202.016 85.0122L167.558 96.5461C166.334 112.535 167.923 131.17 171.826 148.728C171.731 166.079 172.642 181.838 171.508 197.488C180.367 200.036 190.07 199.955 199.488 199.955H207.209C208.902 167.977 211.634 129.917 213.237 97.7681H213.227Z" fill="#00A2AB"/>
<path fill-rule="evenodd" clip-rule="evenodd" d="M207.01 187.875L206.735 197.944L205.312 197.831H205.25L203.633 197.7C197.139 197.141 190.696 196.278 184.303 195.112C178.575 194.043 174.24 192.898 171.821 191.843C172.357 181.472 172.267 170.087 172.324 159.085C172.348 154.676 172.371 150.113 172.424 145.644V144.792C172.424 138.159 171.973 131.337 171.58 126.134L171.764 126.048L171.613 99.8962L170.901 97.5605L201.471 84.8994L201.566 84.728V87.0276C201.566 91.0135 202.794 93.7144 205.321 95.2925C206.17 95.8438 207.105 96.2652 208.091 96.5415C206.967 96.2991 205.82 96.1662 204.667 96.1447C203.532 96.0846 202.408 96.3843 201.471 96.9969C201.189 97.2819 200.969 97.617 200.823 97.9829C200.677 98.3489 200.609 98.7386 200.622 99.1297V99.8962C200.622 102.106 202.519 103.395 204.349 104.644C206.057 105.807 207.669 106.899 207.669 108.671C207.66 108.931 207.612 109.189 207.527 109.437C207.527 109.491 207.498 109.55 207.479 109.609C207.199 110.646 206.422 115.06 205.506 120.854C205.032 123.667 204.558 126.761 204.084 130.057C203.311 135.499 202.467 142.042 201.637 148.972C201.333 151.803 201.063 154.346 200.793 156.727C200.295 162.242 200.038 166.624 200.038 169.763C200.02 170.473 200.052 171.184 200.133 171.891C200.233 174.042 203.927 183.005 206.996 187.911L207.01 187.875ZM208.959 96.7038C208.67 96.6362 208.376 96.5731 208.086 96.5145C208.371 96.5911 208.665 96.6542 208.959 96.7038Z" fill="#00A2AB"/>
<path fill-rule="evenodd" clip-rule="evenodd" d="M250.952 97.8452C248.885 119.204 248.041 130.436 243.839 149.495L248.809 220.002L262.296 220.94C271.022 221.54 256.767 110.7 251.327 97.8452H250.952Z" fill="#00A2AB"/>
<path fill-rule="evenodd" clip-rule="evenodd" d="M260.632 232.352L249.198 231.247L249.929 217.918L262.003 219.019L260.632 232.352Z" fill="#053C5E"/>
<path fill-rule="evenodd" clip-rule="evenodd" d="M208.423 200.067L210.026 167.774H207.891L206.284 200.067H208.423Z" fill="#053C5E"/>
<path fill-rule="evenodd" clip-rule="evenodd" d="M220.962 101.397C220.208 103.201 214.636 108.12 214.261 108.801C213.312 110.672 222.475 165.046 221.526 173.302C220.578 181.896 213.692 191.595 211.05 191.513C207.84 191.428 200.665 174.663 200.48 171.769C199.721 159.175 206.801 113.31 207.935 109.653C209.357 105.144 200.854 104.545 201.044 99.7831C201.328 93.8267 211.994 97.8262 215.769 98.507C217.192 98.7595 219.639 98.5882 220.772 99.6117C221.526 100.293 222.475 101.415 220.962 101.415V101.397Z" fill="#C4DDB9"/>
<path fill-rule="evenodd" clip-rule="evenodd" d="M202.177 97.5249L216.025 107.381C215.518 107.868 215.043 108.383 214.602 108.924C214.559 109.122 214.527 109.322 214.507 109.523C214.507 111.751 215.551 119.38 216.784 128.641L206.066 121.012C207.014 115.011 207.773 110.723 208.058 109.695C208.159 109.388 208.222 109.072 208.247 108.752C208.247 105.068 201.134 104.212 201.134 99.9237V99.7523C201.165 98.9095 201.539 98.1111 202.177 97.5249Z" fill="#B8D0AE"/>
<path fill-rule="evenodd" clip-rule="evenodd" d="M204.297 129.921L217.87 139.737C219.003 147.917 220.037 156.186 220.715 162.643L201.864 149.035C202.618 142.664 203.467 135.959 204.316 129.921H204.297Z" fill="#B8D0AE"/>
<path fill-rule="evenodd" clip-rule="evenodd" d="M201.618 156.868L221.294 171.143C221.416 171.446 221.575 171.733 221.769 172C221.791 172.571 221.761 173.143 221.679 173.709C220.944 178.83 218.963 183.718 215.893 187.984L202.941 178.583C201.727 175.589 200.888 173.109 200.888 172.085C200.888 171.486 200.798 170.733 200.798 169.948C200.888 166.612 201.168 162.085 201.637 156.872L201.618 156.868Z" fill="#B8D0AE"/>
<path fill-rule="evenodd" clip-rule="evenodd" d="M222.598 84.6922C225.035 86.3064 227.193 88.0018 230.095 88.7503C231.314 96.4742 231.878 104.532 228.127 110.984C222.882 106.741 218.476 101.65 213.227 97.4075C220.07 96.4742 222.038 91.2122 222.598 84.6787V84.6922Z" fill="#053C5E"/>
<path fill-rule="evenodd" clip-rule="evenodd" d="M202.2 84.6919L195.827 86.6578C194.228 90.1658 194.039 103.769 197.894 110.352C203.163 106.078 208.328 101.785 213.606 97.4387C206.459 96.9247 203.258 91.2795 202.224 84.6919H202.2Z" fill="#053C5E"/>
<path fill-rule="evenodd" clip-rule="evenodd" d="M261.191 231.134L248.467 230.106C245.612 238.494 244.91 247.41 246.419 256.109C247.367 257.647 248.368 257.913 249.762 256.79C250.236 256.109 251.806 250.027 252.736 245.842C253.21 243.705 256.529 242.163 257.753 249.265C257.752 253.754 257.222 258.229 256.174 262.607C255.154 266.029 256.269 267.742 258.123 268.594C262.491 261.754 265.094 256.79 264.814 249.179C265.289 255.766 262.306 262.255 258.123 268.594C267.228 264.234 268.902 259.698 269.832 248.922C268.253 241.82 264.999 236.261 261.191 231.129V231.134Z" fill="#965224"/>
<path fill-rule="evenodd" clip-rule="evenodd" d="M206.588 9.95166H217.21C229.066 9.95166 238.84 19.8714 238.84 31.9329V59.7352C238.84 74.2766 224.234 83.0871 211.809 83.0871C199.763 83.0871 184.777 74.4479 184.777 59.7352V31.9329C184.777 19.8714 194.547 9.95166 206.407 9.95166H206.588Z" fill="#965224"/>
<path fill-rule="evenodd" clip-rule="evenodd" d="M224.613 52.1329C224.519 50.7803 226.596 50.0498 229.143 50.0498H231.784C232.34 50.0846 232.862 50.3192 233.243 50.7061C233.624 51.0929 233.836 51.603 233.836 52.1329C233.836 52.6629 233.624 53.173 233.243 53.5598C232.862 53.9467 232.34 54.1813 231.784 54.2161H229.143C226.596 54.2161 224.708 53.6344 224.613 52.1329Z" fill="#844820"/>
<path fill-rule="evenodd" clip-rule="evenodd" d="M198.995 52.1329C199.09 50.7803 197.013 50.0498 194.466 50.0498H191.829C191.273 50.0846 190.752 50.3192 190.371 50.7061C189.99 51.0929 189.778 51.603 189.778 52.1329C189.778 52.6629 189.99 53.173 190.371 53.5598C190.752 53.9467 191.273 54.1813 191.829 54.2161H194.466C197.013 54.2161 198.9 53.6344 198.995 52.1329Z" fill="#844820"/>
<path fill-rule="evenodd" clip-rule="evenodd" d="M211.803 57.8907C214.011 57.8892 216.215 57.7386 218.4 57.4398C219.154 57.3496 219.908 57.6156 219.529 57.8907C218.21 58.7925 215.194 59.6942 211.803 59.6942C208.318 59.6942 205.396 58.7925 204.078 57.8907C203.699 57.6201 204.453 57.3541 205.207 57.4398C207.392 57.7341 209.596 57.8848 211.803 57.8907Z" fill="#844820"/>
<path fill-rule="evenodd" clip-rule="evenodd" d="M187.983 6.76367C176.127 17.1794 185.342 43.3134 185.342 43.3134C187.509 22.7299 192.882 22.9013 192.882 22.9013C211.634 40.3239 231.419 22.7299 231.419 22.7299C236.033 28.5375 238.58 43.142 238.58 43.142C244.702 28.6231 245.361 15.218 231.793 5.05477C219.169 -4.41406 194.201 1.37997 187.983 6.76367Z" fill="black"/>
<path fill-rule="evenodd" clip-rule="evenodd" d="M213.734 0C220.435 0 227.046 1.35269 231.888 5.04103C232.728 5.64072 233.472 6.32157 234.217 6.92126C226.861 9.82504 218.017 16.3901 211.311 30.5798C205.724 30.5798 199.488 28.6139 193.432 22.9146C193.247 22.9146 188.125 23.0859 185.987 43.3312C183.916 36.9916 182.787 30.4079 182.634 23.7713C182.634 17.364 184.028 10.8711 188.595 6.77247C192.413 3.52601 203.116 0.00901642 213.73 0.00901642L213.734 0Z" fill="#0A0A0A"/>
<path fill-rule="evenodd" clip-rule="evenodd" d="M239.372 42.4659C240.529 41.6002 243.289 41.6904 242.663 45.8296C242.183 47.8419 241.498 49.805 240.619 51.6913C240.083 52.7283 239.196 52.6427 238.305 52.8997C235.81 53.5896 239.372 42.4614 239.372 42.4614V42.4659Z" fill="#965224"/>
<path fill-rule="evenodd" clip-rule="evenodd" d="M240.993 43.6338C241.253 43.7245 241.465 43.9084 241.584 44.1462C241.703 44.3839 241.719 44.6565 241.629 44.9053C241.227 46.0498 240.655 47.1339 239.931 48.1247V47.9534C240.495 46.5663 240.86 45.1134 241.017 43.6338H240.993Z" fill="#8D471F"/>
<path fill-rule="evenodd" clip-rule="evenodd" d="M186.015 42.4659C184.858 41.6002 182.103 41.6904 182.724 45.8296C183.203 47.8426 183.889 49.8059 184.773 51.6913C185.304 52.7283 186.195 52.6427 187.087 52.8997C189.577 53.5896 186.015 42.4614 186.015 42.4614V42.4659Z" fill="#965224"/>
<path fill-rule="evenodd" clip-rule="evenodd" d="M184.299 43.3135C184.584 45.6003 185.099 47.856 185.835 50.0499L185.223 48.7378C184.507 47.3355 182.971 46.1992 182.662 44.7969C182.459 43.7508 183.379 43.3135 184.299 43.3135Z" fill="#8D471F"/>
<path fill-rule="evenodd" clip-rule="evenodd" d="M219.539 58.0667C219.724 57.8954 221.204 56.2631 220.554 55.0141C220.184 54.2476 219.169 53.9094 217.6 53.8238C214.83 53.8238 213.905 47.376 213.806 44.9141H212.881C212.881 45.9331 213.436 54.5903 217.59 54.5903C218.79 54.5903 219.53 54.8428 219.715 55.2666C219.99 55.8618 219.16 57.0702 218.766 57.3904L219.506 58.0667H219.539Z" fill="#844820"/>
<path fill-rule="evenodd" clip-rule="evenodd" d="M203.822 58.7068L204.619 58.1883C204.22 57.8411 203.329 56.6237 203.623 56.015C203.822 55.5641 204.718 55.3206 205.913 55.3206H206.112C205.58 55.1341 205.077 54.8776 204.619 54.5586C203.623 54.7299 202.93 55.0771 202.722 55.6002C202.024 56.9033 203.613 58.5535 203.812 58.7249L203.822 58.7068Z" fill="#844820"/>
<path fill-rule="evenodd" clip-rule="evenodd" d="M218.254 42.8347C217.672 43.2053 217.172 43.6819 216.784 44.237C216.784 44.237 219.815 46.221 222.195 46.221C224.671 46.221 228.526 43.6599 228.526 43.6599C228.526 43.6599 223.571 39.178 218.254 42.8347Z" fill="#F7FFFD"/>
<path fill-rule="evenodd" clip-rule="evenodd" d="M218.633 42.8934C218.549 43.3522 218.619 43.8245 218.833 44.2436C219.046 44.6627 219.393 45.0074 219.824 45.2291C220.39 45.6499 221.089 45.8785 221.808 45.8785C222.527 45.8785 223.226 45.6499 223.793 45.2291C225.301 44.1965 224.874 41.7031 224.874 41.7031C223.567 41.5422 222.24 41.6064 220.957 41.8925C218.88 42.411 218.633 42.8934 218.633 42.8934Z" fill="#CC927A"/>
<path fill-rule="evenodd" clip-rule="evenodd" d="M219.658 42.6822C219.598 43.0166 219.634 43.36 219.761 43.6771C219.887 43.9941 220.101 44.2733 220.379 44.4858C220.712 44.7729 221.146 44.9319 221.595 44.9319C222.045 44.9319 222.478 44.7729 222.812 44.4858C223.708 43.805 223.532 41.7804 223.532 41.7804C222.747 41.6903 221.951 41.7485 221.19 41.9518C219.838 42.3756 219.658 42.7138 219.658 42.7138V42.6822Z" fill="#16201F"/>
<path fill-rule="evenodd" clip-rule="evenodd" d="M220.521 44.2737C220.422 44.2685 220.327 44.2357 220.247 44.1796C220.168 44.1235 220.107 44.0464 220.073 43.9579C220.039 43.8694 220.033 43.7734 220.055 43.6817C220.078 43.5899 220.129 43.5065 220.201 43.4417C220.273 43.3769 220.363 43.3336 220.46 43.317C220.558 43.3005 220.659 43.3115 220.75 43.3487C220.841 43.3859 220.918 43.4476 220.973 43.5263C221.028 43.6049 221.057 43.697 221.057 43.7913C221.055 43.8564 221.04 43.9206 221.012 43.9801C220.984 44.0396 220.944 44.0933 220.894 44.1381C220.844 44.1829 220.786 44.2179 220.722 44.2412C220.658 44.2645 220.59 44.2755 220.521 44.2737Z" fill="white"/>
<path fill-rule="evenodd" clip-rule="evenodd" d="M220.487 42.2446C221.869 41.8972 223.318 41.8715 224.713 42.1698C226.107 42.468 227.405 43.0814 228.497 43.958C227.563 42.8628 226.338 42.0239 224.95 41.5277C222.579 40.8063 219.397 41.4375 216.76 44.1384C217.838 43.251 219.112 42.604 220.487 42.2446Z" fill="#4B2B15"/>
<path fill-rule="evenodd" clip-rule="evenodd" d="M205.397 36.5224C205.146 36.2563 203.178 33.0369 198.037 36.7523C195.666 38.5108 193.262 39.9988 193.262 39.9988C193.262 39.9988 196.107 38.8896 199.692 37.6902C201.516 37.0275 203.435 36.6337 205.383 36.5224H205.397Z" fill="black"/>
<path fill-rule="evenodd" clip-rule="evenodd" d="M205.359 42.8347C205.94 43.2054 206.438 43.6821 206.825 44.237C206.825 44.237 203.799 46.221 201.414 46.221C198.938 46.221 195.083 43.6599 195.083 43.6599C195.083 43.6599 200.038 39.178 205.359 42.8347Z" fill="#F7FFFD"/>
<path fill-rule="evenodd" clip-rule="evenodd" d="M213.735 66.1646C219.283 66.8995 221.882 67.2692 224.211 70.7682C224.32 70.926 224.249 70.8764 224.263 71.0793C217.216 69.8664 209.305 70.146 200.205 70.8584C200.205 70.6825 200.152 70.7366 200.295 70.6239C204.15 67.6345 205.786 66.6786 210.325 65.628C212.132 65.2087 211.909 65.9256 213.735 66.1646Z" fill="#844C28"/>
<path fill-rule="evenodd" clip-rule="evenodd" d="M214.456 64.2387C220.251 64.8023 223.941 67.4716 224.211 71.0021C216.149 67.5888 206.289 67.927 200.214 70.8624C200.878 67.643 204.34 65.2216 209.049 64.41C210.835 64.1156 212.655 64.0639 214.456 64.2567V64.2387Z" fill="#823A37"/>
<path fill-rule="evenodd" clip-rule="evenodd" d="M205.392 42.9348C205.558 43.9087 205.051 44.6933 204.136 45.2299C203.567 45.6507 202.867 45.8792 202.146 45.8792C201.426 45.8792 200.725 45.6507 200.157 45.2299C198.734 44.1973 199.004 41.6587 199.004 41.6587C200.333 41.4933 201.681 41.5529 202.988 41.8346C205.075 42.3531 205.392 42.9348 205.392 42.9348Z" fill="#CC927A"/>
<path fill-rule="evenodd" clip-rule="evenodd" d="M203.955 42.682C204.013 43.0164 203.977 43.3593 203.85 43.6761C203.724 43.9928 203.511 44.2721 203.234 44.4856C202.901 44.7726 202.468 44.9316 202.018 44.9316C201.568 44.9316 201.135 44.7726 200.801 44.4856C199.9 43.8047 200.081 41.7802 200.081 41.7802C200.866 41.6904 201.662 41.7486 202.423 41.9515C203.775 42.3754 203.955 42.7136 203.955 42.7136V42.682Z" fill="#16201F"/>
<path fill-rule="evenodd" clip-rule="evenodd" d="M203.087 44.2737C202.988 44.2685 202.893 44.2357 202.814 44.1796C202.734 44.1235 202.673 44.0464 202.639 43.9579C202.605 43.8694 202.599 43.7734 202.622 43.6817C202.645 43.5899 202.695 43.5065 202.767 43.4417C202.839 43.3769 202.929 43.3336 203.027 43.317C203.124 43.3005 203.225 43.3115 203.316 43.3487C203.407 43.3859 203.485 43.4476 203.539 43.5263C203.594 43.6049 203.623 43.697 203.623 43.7913C203.622 43.8564 203.606 43.9206 203.578 43.9801C203.55 44.0396 203.51 44.0933 203.461 44.1381C203.411 44.1829 203.352 44.2179 203.288 44.2412C203.224 44.2645 203.156 44.2755 203.087 44.2737Z" fill="white"/>
<path fill-rule="evenodd" clip-rule="evenodd" d="M203.448 42.3844C202.261 42.095 201.024 42.0337 199.811 42.204C198.205 42.4597 196.697 43.1111 195.438 44.0933C196.374 42.9969 197.6 42.1579 198.991 41.663C201.362 40.9415 204.539 41.5728 207.181 44.2737C206.101 43.3859 204.826 42.7403 203.448 42.3844Z" fill="#4B2B15"/>
<path fill-rule="evenodd" clip-rule="evenodd" d="M236.901 125.061L238.707 127.766H238.081C237.655 130.977 234.34 132.726 231.722 132.686C228.692 132.627 227.16 130.093 232.22 130.327C231.492 130.333 230.769 130.444 230.076 130.657C227.231 131.942 235.862 133.412 235.824 127.766H235.098L236.901 125.061Z" fill="#053C5E"/>
<path fill-rule="evenodd" clip-rule="evenodd" d="M204.364 60.8447C206.996 60.6466 209.645 60.9064 212.179 61.6112C214.715 60.9063 217.365 60.6466 219.999 60.8447C223.4 61.2956 227.307 65.6603 227.307 65.6603C223.039 67.4188 212.179 64.9704 212.179 64.9704C212.179 64.9704 201.305 67.4188 197.056 65.6603C197.056 65.6603 200.963 61.2279 204.364 60.8447Z" fill="black"/>
<path fill-rule="evenodd" clip-rule="evenodd" d="M205.786 60.493C207.895 60.4902 209.995 60.7695 212.022 61.3227C214.057 60.7668 216.165 60.4874 218.282 60.493C218.854 60.4801 219.426 60.5057 219.994 60.5697C222.228 60.7951 224.542 62.6799 225.998 63.9604C224.884 64.0371 223.153 64.1904 221.199 64.1904C218.023 64.2563 214.859 63.7987 211.847 62.8377C207.351 63.6987 202.783 64.1756 198.198 64.2625H197.34C198.715 62.982 201.371 60.7951 203.69 60.493H205.786Z" fill="#121212"/>
<path fill-rule="evenodd" clip-rule="evenodd" d="M167.557 96.5464C168.506 117.977 168.582 129.493 171.826 148.729L167.529 219.519L153.99 219.821C145.245 220.006 160.951 109.352 167.055 96.7538L167.576 96.5283L167.557 96.5464Z" fill="#00A2AB"/>
<path fill-rule="evenodd" clip-rule="evenodd" d="M154.924 232.266L166.405 231.703L166.362 218.352L154.246 218.888L154.924 232.266Z" fill="#053C5E"/>
<path fill-rule="evenodd" clip-rule="evenodd" d="M154.431 231.026L167.197 230.598C169.616 239.109 169.853 248.047 167.89 256.664C166.88 258.161 165.846 258.368 164.513 257.192C164.082 256.488 162.82 250.347 162.114 246.118C161.758 243.958 158.5 242.262 156.897 249.296C156.665 253.782 156.963 258.279 157.784 262.701C158.628 266.164 157.423 267.824 155.522 268.59C151.519 261.547 149.176 256.47 149.831 248.882C149.025 255.438 151.657 262.07 155.522 268.59C146.658 263.806 145.221 259.198 144.856 248.39C146.8 241.37 150.338 235.972 154.407 231.026H154.431Z" fill="#965224"/>
<path fill-rule="evenodd" clip-rule="evenodd" d="M218.168 36.9059C218.415 36.6399 220.388 33.425 225.529 37.1404C227.9 38.8944 230.299 40.3823 230.299 40.3823C230.299 40.3823 227.478 39.2776 223.869 38.0737C222.045 37.4131 220.126 37.0194 218.178 36.9059H218.168Z" fill="black"/>
<defs>
<filter id="filter0_f" x="0" y="407" width="330.469" height="23" filterUnits="userSpaceOnUse" color-interpolation-filters="sRGB">
<feFlood flood-opacity="0" result="BackgroundImageFix"/>
<feBlend mode="normal" in="SourceGraphic" in2="BackgroundImageFix" result="shape"/>
<feGaussianBlur stdDeviation="2.5" result="effect1_foregroundBlur"/>
</filter>
</defs>
</svg>
